<?xml version="1.0" standalone="no"?><!DOCTYPE svg PUBLIC "-//W3C//DTD SVG 1.1//EN" "http://www.w3.org/Graphics/SVG/1.1/DTD/svg11.dtd"><svg t="1729225667353" class="icon" viewBox="0 0 1024 1024" version="1.1" xmlns="http://www.w3.org/2000/svg" p-id="3990" xmlns:xlink="http://www.w3.org/1999/xlink" width="81" height="81"><path d="M752.448 543.072l-45.248-45.248 252.8-252.768 0-181.056-181.056 0-252.768 252.8-45.248-45.248 271.52-271.552 271.552 0 0 271.552z" fill="#e60012" p-id="3991"></path><path d="M580.512 922.432l-478.944-478.944 328.608-116.832 21.44 60.32-233.184 82.912 335.68 335.68 82.912-233.152 60.32 21.44z" fill="#e60012" p-id="3992"></path><path d="M0.928 1023.072l162.24-364.768 58.496 26.016-94.592 212.608 212.64-94.56 26.016 58.496z" fill="#e60012" p-id="3993"></path><path d="M520.832 457.184l45.984 44.512-177.568 183.52-45.984-44.512 177.536-183.52z" fill="#e60012" p-id="3994"></path></svg>